<?xml version="1.0" encoding="UTF-8" standalone="no"?>
<!-- Created with Inkscape (http://www.inkscape.org/) -->

<svg
   xmlns:dc="http://purl.org/dc/elements/1.1/"
   xmlns:cc="http://creativecommons.org/ns#"
   xmlns:rdf="http://www.w3.org/1999/02/22-rdf-syntax-ns#"
   xmlns:svg="http://www.w3.org/2000/svg"
   xmlns="http://www.w3.org/2000/svg"
   xmlns:sodipodi="http://sodipodi.sourceforge.net/DTD/sodipodi-0.dtd"
   xmlns:inkscape="http://www.inkscape.org/namespaces/inkscape"
   id="svg2"
   version="1.1"
   inkscape:version="0.48.2 r9819"
   width="47.044796"
   height="22.392431"
   sodipodi:docname="zoek.svg"
   inkscape:export-filename="C:\Users\Zoek\Downloads\aguila.png"
   inkscape:export-xdpi="90"
   inkscape:export-ydpi="90">
  <title
     id="title3057">CUAUHTLI</title>
  <metadata
     id="metadata8">
    <rdf:RDF>
      <cc:Work
         rdf:about="">
        <dc:format>image/svg+xml</dc:format>
        <dc:type
           rdf:resource="http://purl.org/dc/dcmitype/StillImage" />
        <dc:title>CUAUHTLI</dc:title>
        <dc:date>6 enero 2012</dc:date>
        <dc:creator>
          <cc:Agent>
            <dc:title>zoek</dc:title>
          </cc:Agent>
        </dc:creator>
        <dc:rights>
          <cc:Agent>
            <dc:title>Creative common</dc:title>
          </cc:Agent>
        </dc:rights>
        <dc:publisher>
          <cc:Agent>
            <dc:title>Inkscape</dc:title>
          </cc:Agent>
        </dc:publisher>
        <dc:language>Español</dc:language>
        <dc:subject>
          <rdf:Bag>
            <rdf:li>Aguila Azteca</rdf:li>
          </rdf:Bag>
        </dc:subject>
        <cc:license
           rdf:resource="" />
      </cc:Work>
    </rdf:RDF>
  </metadata>
  <defs
     id="defs6" />
  <sodipodi:namedview
     pagecolor="#ffffff"
     bordercolor="#666666"
     borderopacity="1"
     objecttolerance="10"
     gridtolerance="10"
     guidetolerance="10"
     inkscape:pageopacity="0"
     inkscape:pageshadow="2"
     inkscape:window-width="1366"
     inkscape:window-height="712"
     id="namedview4"
     showgrid="false"
     inkscape:zoom="7.1542568"
     inkscape:cx="-15.834642"
     inkscape:cy="-1.8002495"
     inkscape:window-x="0"
     inkscape:window-y="26"
     inkscape:window-maximized="1"
     inkscape:current-layer="svg2"
     fit-margin-top="0.4"
     fit-margin-left="0.4"
     fit-margin-right="0.4"
     fit-margin-bottom="0.4" />
  <path
     style="fill:#ffffff;fill-opacity:1;stroke:#000000;stroke-width:0.34083089px;stroke-linecap:butt;stroke-linejoin:miter;stroke-opacity:1"
     d="m 26.227131,19.875262 4.31191,-0.134749 1.886457,-0.134743 3.36868,0.538983 3.868197,0.958882 3.408148,0.658084 c 0,0 1.101973,0.190495 1.505333,-0.110223 0.441948,-0.329485 0.667392,-1.111274 0.586629,-1.546204 -0.09276,-0.499629 -0.744493,-1.220899 -0.744493,-1.220899 0,0 -1.327129,-0.642737 -1.847695,-0.887415 C 41.3665,17.431162 39.162854,17.04557 39.162854,17.04557 l -3.233933,-0.40424 0.134749,-0.538989 3.257752,-0.102755 c 0,0 2.761487,-0.01481 4.153342,0.02383 0.809416,0.02247 1.658966,-0.04039 2.377811,-0.413118 0.376172,-0.195053 0.437818,-0.670663 0.554641,-1.077978 0.136204,-0.474926 0.07427,-0.836534 -0.166748,-1.267836 -0.334437,-0.598505 -0.663262,-0.748336 -1.322954,-0.935056 -0.891516,-0.252336 -2.959139,-0.114178 -4.075799,-0.104543 -2.185422,0.01886 -5.148599,-0.06389 -5.148599,-0.06389 l 0.101062,-0.370554 7.680586,-2.5601952 c 0,0 0.662636,-0.4563712 0.80848,-0.8084824 0.189073,-0.4564637 0.260607,-1.062464 0,-1.482218 C 44.098203,6.6414989 43.900449,6.5541912 43.482937,6.4012528 43.183116,6.2914261 42.73947,6.3184593 42.437511,6.3171569 c -0.720983,-0.0031 -1.425162,0.3349277 -2.164686,0.5203318 -1.756256,0.4403079 -3.379348,1.2173298 -5.152384,1.5842697 -0.659754,0.1365395 -2.021206,0 -2.021206,0 0,0 2.333397,-1.2592813 3.099184,-2.2907005 0.398041,-0.5361108 0.611589,-1.2216381 0.673737,-1.8864593 0.08041,-0.8602204 -0.499527,-2.5601948 -0.499527,-2.5601948 0,0 -1.1513,1.3103277 -1.925925,1.7517124 -1.234075,0.7031835 -2.784285,0.6882725 -4.042412,1.3474711 -0.397855,0.2084562 -1.268534,0.8084825 -1.268534,0.8084825 l -1.291661,0.8084824 c 0,0 0.559526,-1.1366216 0.673737,-1.7517123 0.131195,-0.7065747 0.140937,-1.4512584 0,-2.1559536 -0.114515,-0.572565 -0.673737,-1.61696493 -0.673737,-1.61696493 0,0 -1.082822,1.43175483 -1.751709,2.02120613 -0.486001,0.4282838 -1.616966,1.0779768 -1.616966,1.0779768 L 22.72371,4.9183342 21.241493,5.5920698 c 0,0 0.930718,-1.3716344 0.943228,-2.1559536 0.01158,-0.7255435 -1.261066,-2.66435042 -1.261066,-2.66435042 0,0 -0.197353,0.51347902 -0.276965,0.71460402 C 20.220085,2.5641486 19.596335,3.3874225 18.816046,4.2445986 18.215885,4.9038954 16.79484,5.996311 16.79484,5.996311 L 15.716863,5.5920698 c 0,0 -1.392797,-0.2429468 -2.021206,0 -0.622797,0.2407774 -1.198642,0.7636232 -1.482218,1.3474706 -0.283576,0.5838473 -0.20212,1.9201461 -0.20212,1.9201461 0,0 -0.990706,-0.6168235 -1.549594,-0.8421694 C 9.7634282,7.7359598 9.0550124,7.4182027 8.3057756,7.3437821 7.4518602,7.2589643 5.7455813,7.6132759 5.7455813,7.6132759 c 0,0 -1.0493794,0.3463342 -1.4822231,0.673735 -0.6100265,0.4614263 -1.1853396,1.0467899 -1.4822169,1.7517121 -0.3677532,0.873218 -0.4689526,1.903424 -0.2694915,2.829689 0.48967,1.473771 1.0160728,2.25636 2.6493943,2.336463 0.1995739,-4.88251 3.9202028,-2.105368 7.1524549,-1.165886 0,0 8.534648,2.992609 9.014599,3.06799 0.455215,0.0715 -12.0034942,0.170115 -12.0034942,0.170115 L 7.3962325,17.82037 c 0,0 0.257635,0.872716 0.5052973,1.246412 0.2105472,0.317685 0.4563707,0.662631 0.8084859,0.80848 0.5809548,0.24064 1.9340983,0.07146 1.9340983,0.07146 l 2.647303,-0.07146 2.694943,0 2.577032,0.117906 0.007,0.0012 c 5.389886,0.522146 4.540737,0.419887 4.540737,0.419887 1.441033,-0.361191 2.049277,-0.364936 3.116024,-0.538983 z"
     id="path2987-1-4-5"
     inkscape:connector-curvature="0"
     sodipodi:nodetypes="ccccccsscsccccsssssscccsssssscsscssccsscscccscssccszcsscsscccsccsscccccccc" />
  <path
     style="fill:#ffffff;fill-opacity:1;stroke:#000000;stroke-width:0.32988966px;stroke-linecap:butt;stroke-linejoin:miter;stroke-opacity:1"
     d="m 15.432232,8.1813916 c 0,0 -0.04917,1.0392134 -0.473862,1.2922574 -0.424688,0.2530441 -0.913272,0.1920082 -1.421587,0.1076883 -0.508315,-0.08432 -1.387901,-0.6124418 -1.387901,-0.6124418"
     id="path2989-7-0-4"
     inkscape:connector-curvature="0"
     sodipodi:nodetypes="czzc" />
  <path
     style="fill:#ffffff;fill-opacity:1;stroke:#000000;stroke-width:0.34080577;stroke-linecap:butt;stroke-linejoin:miter;stroke-miterlimit:4;stroke-opacity:1;stroke-dasharray:none"
     d="m 16.746244,6.1101487 0.693816,6.1812713 2.838339,2.49143 5.96051,0.599202 C 28.382161,13.438224 28.456087,11.280324 27.153483,8.9800244 25.027012,7.3671467 22.78675,5.8974164 17.050882,8.825387"
     id="path3912-3"
     inkscape:connector-curvature="0"
     sodipodi:nodetypes="cccccc" />
  <path
     style="fill:#ffffff;fill-opacity:1;stroke:#000000;stroke-width:0.21434325;stroke-linecap:butt;stroke-linejoin:miter;stroke-miterlimit:4;stroke-opacity:1;stroke-dasharray:none"
     d="m 18.489853,13.155008 1.940108,1.694807 5.307424,0.512901 -0.401403,-0.691302 c 0.52909,-0.843784 0.936945,-1.709612 0.178401,-2.787512 -0.79734,-0.687835 -1.376348,-1.500689 -3.835617,-2.0739083 -0.84043,0.1294667 -1.550577,-0.3180358 -3.188913,3.3450143 z"
     id="path3908-23"
     inkscape:connector-curvature="0"
     sodipodi:nodetypes="ccccccc" />
  <path
     style="fill:#ffffff;fill-opacity:1;stroke:#000000;stroke-width:0.34083089px;stroke-linecap:butt;stroke-linejoin:miter;stroke-opacity:1"
     d="m 19.710576,13.235815 c -0.278285,-0.684486 0.18411,-1.641879 0.640052,-2.223326 0.354118,-0.4516 2.021206,-0.370555 2.021206,-0.370555 l 2.12227,1.077977 c 0,0 0.827901,0.948675 0.875852,1.515904 0.04179,0.494348 -0.02043,0.797319 -0.404241,1.111664 -0.6466,0.529569 -1.467496,0.279193 -2.290698,0.134749 -0.509675,-0.08943 -1.396593,-0.112801 -1.878538,-0.301203 -0.433143,-0.169321 -0.910745,-0.514388 -1.085903,-0.94521 z"
     id="path3007-5-0-0"
     inkscape:connector-curvature="0"
     sodipodi:nodetypes="ssccsssss" />
  <path
     style="fill:#000000;fill-opacity:1;stroke:#000000;stroke-width:0.32862282px;stroke-linecap:butt;stroke-linejoin:miter;stroke-opacity:1"
     d="m 22.769474,11.871166 c -0.363136,-0.119951 -0.938434,-0.03223 -1.220741,0.235496 -0.315237,0.298956 -0.355606,0.778297 -0.09519,1.130472 0.340829,0.460916 1.076878,0.600578 1.618179,0.465488 0.354022,-0.08835 0.572855,-0.416624 0.571123,-0.797979 -0.0024,-0.541139 -0.38086,-0.870787 -0.87337,-1.033477 z"
     id="path3009-5-8-4"
     inkscape:connector-curvature="0"
     sodipodi:nodetypes="ssssss" />
  <path
     style="fill:#ffffff;fill-opacity:1;stroke:#000000;stroke-width:0.34083089px;stroke-linecap:butt;stroke-linejoin:miter;stroke-opacity:1"
     d="m 18.801033,6.1615934 2.345525,-3.495661 0.349419,0.9922722 C 21.241303,4.5792657 20.505756,5.2874017 19.862664,5.954685 z"
     id="path3011-1-1-55"
     inkscape:connector-curvature="0"
     sodipodi:nodetypes="ccccc" />
  <path
     style="fill:#ffffff;fill-opacity:1;stroke:#000000;stroke-width:0.34080577;stroke-linecap:butt;stroke-linejoin:miter;stroke-miterlimit:4;stroke-opacity:1;stroke-dasharray:none"
     d="m 11.950242,8.8810435 c 0.05411,-0.7884357 0.0985,-1.339682 0.297269,-1.8142143 1.348376,-3.2190109 5.541784,-0.068507 4.548847,-1.137052 l 0.758203,6.2440248 2.676011,2.586812 6.021023,0.669005 1.070407,2.230011 -0.981207,2.23001 c -0.932162,0.157097 -1.653489,0.243917 -3.255811,0.624399 C 18.220232,19.69945 13.472491,19.820948 8.7237235,19.934234 8.1638555,19.72543 7.7434539,18.679824 7.2965172,17.79343 L 9.1697255,17.213626 21.211776,17.035225 C 8.9381547,13.378721 5.2027875,9.5014037 5.066508,15.251218 3.1843007,15.161053 1.8496061,12.641408 2.5688975,10.568196 3.4466895,8.0381426 6.3143045,6.7253872 10.061729,7.7583852 l 1.913073,1.0885721"
     id="path3934-4"
     inkscape:connector-curvature="0"
     sodipodi:nodetypes="csccccccccccccscc" />
  <path
     style="fill:#ffffff;fill-opacity:1;stroke:#000000;stroke-width:0.34083089px;stroke-linecap:butt;stroke-linejoin:miter;stroke-opacity:1"
     d="m 24.460413,5.4878578 2.824903,-2.4206596 0.896992,0.1867646 -2.374421,2.334955 z"
     id="path3013-7-3-4"
     inkscape:connector-curvature="0"
     sodipodi:nodetypes="ccccc" />
  <path
     style="fill:#ffffff;fill-opacity:1;stroke:#000000;stroke-width:0.34083089px;stroke-linecap:butt;stroke-linejoin:miter;stroke-opacity:1"
     d="M 29.985048,7.2395701 36.17664,3.7592652 35.493331,5.1067357 31.467265,7.436903 z"
     id="path3015-1-1-09"
     inkscape:connector-curvature="0"
     sodipodi:nodetypes="ccccc" />
  <path
     style="fill:#ffffff;fill-opacity:1;stroke:#000000;stroke-width:0.34083089px;stroke-linecap:butt;stroke-linejoin:miter;stroke-opacity:1"
     d="m 35.24018,9.799765 7.4996,-2.1164874 -0.492746,1.1732575 -6.872105,1.7517119 z"
     id="path3017-1-1-2"
     inkscape:connector-curvature="0"
     sodipodi:nodetypes="ccccc" />
  <path
     style="fill:#ffffff;fill-opacity:1;stroke:#000000;stroke-width:0.34083089px;stroke-linecap:butt;stroke-linejoin:miter;stroke-opacity:1"
     d="m 36.048666,13.572683 c 0,0 0.453364,0.383458 0.537122,0.63474 0.05098,0.152962 -0.132882,0.577982 -0.132882,0.577982 l 8.893311,-0.134743 -0.808486,-1.077979 -4.311909,0 z"
     id="path3019-5-0-1"
     inkscape:connector-curvature="0"
     sodipodi:nodetypes="csccccc" />
  <path
     style="fill:#ffffff;fill-opacity:1;stroke:#000000;stroke-width:0.34083089px;stroke-linecap:butt;stroke-linejoin:miter;stroke-opacity:1"
     d="m 35.779169,17.749845 c 0,0 0.431557,0.554766 0.456777,0.832149 0.0197,0.216689 -0.89371,0.268944 -0.89371,0.268944 l 3.401373,0.515873 5.366761,1.482218 -0.381119,-0.808486 -5.659379,-1.886457 z"
     id="path3021-2-3-5"
     inkscape:connector-curvature="0"
     sodipodi:nodetypes="cscccccc" />
  <path
     style="fill:#ffffff;fill-opacity:1;stroke:#000000;stroke-width:0.34193388;stroke-linecap:butt;stroke-linejoin:miter;stroke-miterlimit:4;stroke-opacity:1;stroke-dasharray:none"
     d="m 26.089151,15.316469 c 1.129543,-0.454278 1.655316,-1.880518 1.955301,-3.153712 l 2.333741,-0.44152 c 0.707575,0.587918 2.087624,1.596476 2.459893,2.775267 0.503431,1.594088 0.701856,2.121575 -0.567665,4.98286 l -5.865898,0.378446 c 0,0 0.867058,-1.467321 0.819964,-2.270674 -0.04952,-0.844777 -1.135336,-2.270667 -1.135336,-2.270667 z"
     id="path3900-67"
     inkscape:connector-curvature="0"
     sodipodi:nodetypes="cccaccac" />
  <path
     style="fill:#ffffff;fill-opacity:1;stroke:#000000;stroke-width:0.34080577;stroke-linecap:butt;stroke-linejoin:miter;stroke-miterlimit:4;stroke-opacity:1;stroke-dasharray:none"
     d="m 29.04134,13.932988 1.513776,4.352118 -1.829149,0.693818 0.378446,-2.018375 -1.387636,-1.703002 2.333747,-2.522968 1.576856,1.198409 0.315372,3.153708 -1.390027,1.200124"
     id="path3904-0"
     inkscape:connector-curvature="0"
     sodipodi:nodetypes="ccccccccc" />
  <path
     style="fill:none;stroke:#000000;stroke-width:0.34080577;stroke-linecap:butt;stroke-linejoin:miter;stroke-miterlimit:4;stroke-opacity:1;stroke-dasharray:none"
     d="m 10.159855,7.9126277 1.829152,1.1353356 c 2.349266,1.0068427 3.416129,0.6436937 3.83736,-0.7371033"
     id="path3938-1"
     inkscape:connector-curvature="0"
     sodipodi:nodetypes="ccc" />
</svg>
