<?xml version="1.0" encoding="UTF-8" standalone="no"?>
<!-- Created with Inkscape (http://www.inkscape.org/) -->

<svg
   xmlns:dc="http://purl.org/dc/elements/1.1/"
   xmlns:cc="http://creativecommons.org/ns#"
   xmlns:rdf="http://www.w3.org/1999/02/22-rdf-syntax-ns#"
   xmlns:svg="http://www.w3.org/2000/svg"
   xmlns="http://www.w3.org/2000/svg"
   xmlns:sodipodi="http://sodipodi.sourceforge.net/DTD/sodipodi-0.dtd"
   xmlns:inkscape="http://www.inkscape.org/namespaces/inkscape"
   id="svg2"
   version="1.1"
   inkscape:version="0.48.2 r9819"
   width="47.044796"
   height="22.392431"
   sodipodi:docname="zoek.svg"
   inkscape:export-filename="C:\Users\Zoek\Downloads\aguila.png"
   inkscape:export-xdpi="90"
   inkscape:export-ydpi="90">
  <title
     id="title3057">CUAUHTLI</title>
  <metadata
     id="metadata8">
    <rdf:RDF>
      <cc:Work
         rdf:about="">
        <dc:format>image/svg+xml</dc:format>
        <dc:type
           rdf:resource="http://purl.org/dc/dcmitype/StillImage" />
        <dc:title>CUAUHTLI</dc:title>
        <dc:date>6 enero 2012</dc:date>
        <dc:creator>
          <cc:Agent>
            <dc:title>zoek</dc:title>
          </cc:Agent>
        </dc:creator>
        <dc:rights>
          <cc:Agent>
            <dc:title>Creative common</dc:title>
          </cc:Agent>
        </dc:rights>
        <dc:publisher>
          <cc:Agent>
            <dc:title>Inkscape</dc:title>
          </cc:Agent>
        </dc:publisher>
        <dc:language>Español</dc:language>
        <dc:subject>
          <rdf:Bag>
            <rdf:li>Aguila Azteca</rdf:li>
          </rdf:Bag>
        </dc:subject>
        <cc:license
           rdf:resource="" />
      </cc:Work>
    </rdf:RDF>
  </metadata>
  <defs
     id="defs6" />
  <sodipodi:namedview
     pagecolor="#ffffff"
     bordercolor="#666666"
     borderopacity="1"
     objecttolerance="10"
     gridtolerance="10"
     guidetolerance="10"
     inkscape:pageopacity="0"
     inkscape:pageshadow="2"
     inkscape:window-width="1366"
     inkscape:window-height="713"
     id="namedview4"
     showgrid="false"
     inkscape:zoom="7.1542568"
     inkscape:cx="-15.834642"
     inkscape:cy="-1.8002495"
     inkscape:window-x="0"
     inkscape:window-y="25"
     inkscape:window-maximized="1"
     inkscape:current-layer="svg2"
     fit-margin-top="0.4"
     fit-margin-left="0.4"
     fit-margin-right="0.4"
     fit-margin-bottom="0.4" />
  <g
     id="g4111"
     transform="matrix(0.05640612,0,0,0.05640612,28.32808,-42.345263)"
     inkscape:export-xdpi="63.352398"
     inkscape:export-ydpi="63.352398"
     inkscape:export-filename="/home/zoek/Dropbox/CUAUHTLI.png">
    <path
       sodipodi:nodetypes="ccacaacc"
       inkscape:connector-curvature="0"
       id="path3037-4"
       d="m -125.13286,1054.0455 -208.7442,0 c 0,0 -82.0801,31.483 -121.7674,20.5582 -13.3404,-3.6723 -31.62791,-26.8838 -31.62791,-26.8838 0,0 25.69271,6.4551 37.95351,3.1628 28.5276,-7.6602 44.989,-40.4974 72.7441,-50.6046 21.8836,-7.96909 69.5815,-6.32559 69.5815,-6.32559 z"
       style="fill:#ffffff;fill-opacity:1;stroke:#000000;stroke-width:6.04199982;stroke-linecap:butt;stroke-linejoin:miter;stroke-miterlimit:4;stroke-opacity:1;stroke-dasharray:none" />
    <path
       sodipodi:nodetypes="ccccccsscsccccsssssscccsssssscsscssccsscscccscssccszcsscsscccsccsscccccccc"
       inkscape:connector-curvature="0"
       id="path2987-1-4-5"
       d="m -37.246824,1103.0811 76.443998,-2.3889 33.4442,-2.3888 59.721896,9.5554 68.5776,16.9996 60.42161,11.6669 c 0,0 19.5364,3.3772 26.6874,-1.9541 7.8351,-5.8413 11.8319,-19.7013 10.4001,-27.412 -1.6446,-8.8577 -13.1988,-21.6448 -13.1988,-21.6448 0,0 -23.5281,-11.3948 -32.757,-15.7326 -21.3416,-10.0311 -60.40911,-16.8671 -60.40911,-16.8671 l -57.333,-7.1666 2.3889,-9.5555 57.7553,-1.8217 c 0,0 48.95721,-0.2626 73.63281,0.4224 14.3498,0.3983 29.4111,-0.716 42.1552,-7.324 6.669,-3.458 7.7619,-11.8899 9.833,-19.111 2.4147,-8.41977 1.3167,-14.83055 -2.9562,-22.47693 -5.9291,-10.61064 -11.7587,-13.26692 -23.4541,-16.57721 -15.8053,-4.47355 -52.4613,-2.02421 -72.2581,-1.8534 -38.74441,0.33427 -91.27731,-1.13269 -91.27731,-1.13269 l 1.7917,-6.5694 136.16581,-45.3886 c 0,0 11.7476,-8.09081 14.3332,-14.33324 3.352,-8.09245 4.6202,-18.83597 0,-26.27761 -3.2805,-5.28385 -6.7864,-6.83169 -14.1883,-9.54307 -5.3154,-1.94707 -13.1806,-1.46781 -18.5339,-1.4909 -12.782,-0.055 -25.2661,5.93779 -38.3768,9.22474 -31.13591,7.80603 -59.91101,21.58152 -91.34441,28.08684 -11.6965,2.42065 -35.833096,0 -35.833096,0 0,0 41.367796,-22.32526 54.944096,-40.61085 7.0567,-9.50448 10.8426,-21.6579 11.9444,-33.44423 1.4256,-15.25048 -8.8559,-45.3886 -8.8559,-45.3886 0,0 -20.4109,23.23024 -34.1439,31.05536 -21.878396,12.46644 -49.361396,12.20209 -71.666196,23.88874 -7.0534,3.69563 -22.4893,14.33324 -22.4893,14.33324 l -22.8992978,14.33324 c 0,0 9.9196,-20.15068 11.9444,-31.05536 2.3259,-12.52656 2.4986,-25.72874 0,-38.22198 -2.0302,-10.15076 -11.9444,-28.66648 -11.9444,-28.66648 0,0 -19.1969002,25.38297 -31.0553002,35.8331 -8.6161,7.59286 -28.6665,19.11099 -28.6665,19.11099 l -31.05536,16.72212 -26.277596,11.94437 c 0,0 16.5003,-24.31712 16.7221,-38.22198 0.2052,-12.86285 -22.3569,-47.23513 -22.3569,-47.23513 0,0 -3.4988,9.10325 -4.9102,12.66891 -7.5631,19.10748 -18.6213,33.70295 -32.4547,48.89946 -10.64,11.68839 -35.8331,31.05536 -35.8331,31.05536 l -19.111,-7.16662 c 0,0 -24.6923,-4.3071 -35.8331,0 -11.0413,4.26864 -21.2502,13.53795 -26.2776,23.88873 -5.0274,10.35078 -3.5833,34.04145 -3.5833,34.04145 0,0 -17.5638,-10.9354 -27.4721,-14.93046 -12.3798,-4.99161 -24.939,-10.62499 -38.2219,-11.94436 -15.1387,-1.5037 -45.38859,4.77774 -45.38859,4.77774 0,0 -18.604,6.14001 -26.2777,11.94436 -10.8149,8.18043 -21.01438,18.55809 -26.27759,31.05536 -6.51974,15.4809 -8.31386,33.74498 -4.7777,50.16635 8.68115,26.12784 18.01352,40.00204 46.96998,41.42214 3.53816,-86.55992 69.4996,-37.32517 126.80281,-20.66948 0,0 151.30713,53.05468 159.81598,54.39108 8.07031,1.2676 -212.80482,3.0159 -212.80482,3.0159 l -34.18727,9.6315 c 0,0 4.5675,15.472 8.9582,22.0971 3.7327,5.6321 8.0908,11.7475 14.3333,14.3332 10.2995,4.2662 34.2888,1.2669 34.2888,1.2669 l 46.9329,-1.2669 47.7775,0 45.6871,2.0903 0.1237,0.021 c 95.554996,9.2569 80.500796,7.444 80.500796,7.444 25.54746,-6.4034 36.33076,-6.4698 55.24266,-9.5554 z"
       style="fill:#ffffff;fill-opacity:1;stroke:#000000;stroke-width:6.04244518px;stroke-linecap:butt;stroke-linejoin:miter;stroke-opacity:1" />
    <path
       sodipodi:nodetypes="czzc"
       inkscape:connector-curvature="0"
       id="path2989-7-0-4"
       d="m -228.62498,895.76547 c 0,0 -0.8718,18.42377 -8.4009,22.90988 -7.5291,4.48611 -16.191,3.40403 -25.2027,1.90916 -9.0117,-1.49488 -24.6055,-10.85772 -24.6055,-10.85772"
       style="fill:#ffffff;fill-opacity:1;stroke:#000000;stroke-width:5.8484726px;stroke-linecap:butt;stroke-linejoin:miter;stroke-opacity:1" />
    <path
       sodipodi:nodetypes="cccccc"
       inkscape:connector-curvature="0"
       id="path3912-3"
       d="m -205.32942,859.04529 12.30037,109.58511 50.31969,44.1695 105.671336,10.623 c 37.99680016,-34.4613 39.3074002,-72.71779 16.2141,-113.49881 -37.6993,-28.59402 -77.41595,-54.65024 -179.104696,-2.7415"
       style="fill:#ffffff;fill-opacity:1;stroke:#000000;stroke-width:6.04199982;stroke-linecap:butt;stroke-linejoin:miter;stroke-miterlimit:4;stroke-opacity:1;stroke-dasharray:none" />
    <path
       sodipodi:nodetypes="ccccccc"
       inkscape:connector-curvature="0"
       id="path3908-23"
       d="m -174.41773,983.94059 34.39535,30.04651 94.093056,9.093 -7.1163,-12.2558 c 9.38,-14.95908 16.6107,-30.30897 3.1628,-49.4186 -14.1357,-12.19433 -24.4007,-26.60508 -68.000016,-36.76744 -14.89963,2.29526 -27.48952,-5.63832 -56.53489,59.30233 z"
       style="fill:#ffffff;fill-opacity:1;stroke:#000000;stroke-width:3.79999995;stroke-linecap:butt;stroke-linejoin:miter;stroke-miterlimit:4;stroke-opacity:1;stroke-dasharray:none" />
    <path
       sodipodi:nodetypes="ssccsssss"
       inkscape:connector-curvature="0"
       id="path3007-5-0-0"
       d="m -152.77604,985.37319 c -4.9336,-12.13496 3.264,-29.10817 11.3472,-39.41641 6.278,-8.00622 35.8331,-6.5694 35.8331,-6.5694 l 37.624816,19.11099 c 0,0 14.6775,16.81866 15.5276,26.87482 0.7409,8.76407 -0.3622,14.13532 -7.1666,19.70821 -11.4633,9.3885 -26.01662,4.9497 -40.610816,2.3889 -9.0358,-1.5855 -24.7596,-1.9998 -33.3038,-5.3399 -7.679,-3.00181 -16.1462,-9.11936 -19.2515,-16.75721 z"
       style="fill:#ffffff;fill-opacity:1;stroke:#000000;stroke-width:6.04244518px;stroke-linecap:butt;stroke-linejoin:miter;stroke-opacity:1" />
    <path
       sodipodi:nodetypes="ssssss"
       inkscape:connector-curvature="0"
       id="path3009-5-8-4"
       d="m -98.546144,961.17991 c -6.437896,-2.12657 -16.637096,-0.57137 -21.641996,4.17501 -5.5887,5.30005 -6.3044,13.79808 -1.6876,20.04165 6.0424,8.17138 19.0915,10.64739 28.687996,8.25243 6.2763,-1.56635 10.1559,-7.38614 10.1252,-14.14703 -0.043,-9.59361 -6.7521,-15.43781 -15.4836,-18.32206 z"
       style="fill:#000000;fill-opacity:1;stroke:#000000;stroke-width:5.82601357px;stroke-linecap:butt;stroke-linejoin:miter;stroke-opacity:1" />
    <path
       sodipodi:nodetypes="ccccc"
       inkscape:connector-curvature="0"
       id="path3011-1-1-55"
       d="m -168.90094,859.95733 41.5828,-61.97308 6.1947,17.59157 c -4.515,16.3291 -17.5552,28.88334 -28.9563,40.71332 z"
       style="fill:#ffffff;fill-opacity:1;stroke:#000000;stroke-width:6.04244518px;stroke-linecap:butt;stroke-linejoin:miter;stroke-opacity:1" />
    <path
       sodipodi:nodetypes="csccccccccccccscc"
       inkscape:connector-curvature="0"
       id="path3934-4"
       d="m -290.3557,908.1693 c 0.95926,-13.97784 1.74623,-23.75065 5.27017,-32.16343 23.90478,-57.06847 98.24791,-1.21454 80.64455,-20.15831 l 13.44186,110.69764 47.44186,45.8605 106.744136,11.8605 18.9768,39.5349 -17.3954,39.5349 c -16.5259,2.7851 -29.314,4.3243 -57.72089,11.0697 -86.245106,-14.4415 -170.415776,-12.2875 -254.604646,-10.2791 -9.92566,-3.7018 -17.37878,-22.2389 -25.30233,-37.9534 l 33.20931,-10.2791 213.48837,-3.1628 c -217.59379,-64.8246 -283.81652,-133.5639 -286.23256,-31.6279 -33.36885,-1.5985 -57.03108,-46.2682 -44.27907,-83.0233 15.562,-44.85423 66.40072,-68.12751 132.83721,-49.81393 l 33.91605,19.29883"
       style="fill:#ffffff;fill-opacity:1;stroke:#000000;stroke-width:6.04199982;stroke-linecap:butt;stroke-linejoin:miter;stroke-miterlimit:4;stroke-opacity:1;stroke-dasharray:none" />
    <path
       sodipodi:nodetypes="ccccc"
       inkscape:connector-curvature="0"
       id="path3013-7-3-4"
       d="m -68.568224,848.01296 50.0815,-42.91484 15.9024002,3.31107 -42.0951002,41.39542 z"
       style="fill:#ffffff;fill-opacity:1;stroke:#000000;stroke-width:6.04244518px;stroke-linecap:butt;stroke-linejoin:miter;stroke-opacity:1" />
    <path
       sodipodi:nodetypes="ccccc"
       inkscape:connector-curvature="0"
       id="path3015-1-1-09"
       d="m 29.375674,879.06832 109.768096,-61.70084 -12.1141,23.88873 -71.376396,41.31054 z"
       style="fill:#ffffff;fill-opacity:1;stroke:#000000;stroke-width:6.04244518px;stroke-linecap:butt;stroke-linejoin:miter;stroke-opacity:1" />
    <path
       sodipodi:nodetypes="ccccc"
       inkscape:connector-curvature="0"
       id="path3017-1-1-2"
       d="m 122.54167,924.45692 132.95721,-37.5223 -8.7357,20.80018 -121.83261,31.05536 z"
       style="fill:#ffffff;fill-opacity:1;stroke:#000000;stroke-width:6.04244518px;stroke-linecap:butt;stroke-linejoin:miter;stroke-opacity:1" />
    <path
       sodipodi:nodetypes="csccccc"
       inkscape:connector-curvature="0"
       id="path3019-5-0-1"
       d="m 136.87497,991.34538 c 0,0 8.0375,6.79816 9.5224,11.25302 0.9039,2.7118 -2.3558,10.2468 -2.3558,10.2468 l 157.66571,-2.3888 -14.3333,-19.11102 -76.444,0 z"
       style="fill:#ffffff;fill-opacity:1;stroke:#000000;stroke-width:6.04244518px;stroke-linecap:butt;stroke-linejoin:miter;stroke-opacity:1" />
    <path
       sodipodi:nodetypes="cscccccc"
       inkscape:connector-curvature="0"
       id="path3021-2-3-5"
       d="m 132.09717,1065.4005 c 0,0 7.6509,9.8352 8.098,14.7528 0.3492,3.8416 -15.8442,4.768 -15.8442,4.768 l 60.3015,9.1457 95.14501,26.2776 -6.7567,-14.3333 -100.33271,-33.4442 z"
       style="fill:#ffffff;fill-opacity:1;stroke:#000000;stroke-width:6.04244518px;stroke-linecap:butt;stroke-linejoin:miter;stroke-opacity:1" />
    <path
       sodipodi:nodetypes="cccaccac"
       inkscape:connector-curvature="0"
       id="path3900-67"
       d="m -39.693024,1022.2602 c 20.0252,-8.0537 29.3464,-33.3389 34.6647002,-55.91081 l 41.3738978,-7.82751 c 12.5443,10.42295 37.0106,28.30324 43.6104,49.20152 8.9251,28.2609 12.4429,37.6125 -10.0639,88.339 l -103.993998,6.7093 c 0,0 15.3717,-26.0135 14.5368,-40.2558 -0.878,-14.9767 -20.1279,-40.2557 -20.1279,-40.2557 z"
       style="fill:#ffffff;fill-opacity:1;stroke:#000000;stroke-width:6.0619998;stroke-linecap:butt;stroke-linejoin:miter;stroke-miterlimit:4;stroke-opacity:1;stroke-dasharray:none" />
    <path
       sodipodi:nodetypes="ccccccccc"
       inkscape:connector-curvature="0"
       id="path3904-0"
       d="m 12.645074,997.73307 26.8371,77.15683 -32.4281978,12.3004 6.7092978,-35.7829 -24.600798,-30.1918 41.373998,-44.72862 27.9554,21.24609 5.5911,55.91073 -24.6432,21.2765"
       style="fill:#ffffff;fill-opacity:1;stroke:#000000;stroke-width:6.04199982;stroke-linecap:butt;stroke-linejoin:miter;stroke-miterlimit:4;stroke-opacity:1;stroke-dasharray:none" />
    <path
       sodipodi:nodetypes="ccc"
       inkscape:connector-curvature="0"
       id="path3938-1"
       d="m -322.09669,891.00067 32.42825,20.12788 c 41.64913,17.84989 60.56308,11.41177 68.03092,-13.06779"
       style="fill:none;stroke:#000000;stroke-width:6.04199982;stroke-linecap:butt;stroke-linejoin:miter;stroke-miterlimit:4;stroke-opacity:1;stroke-dasharray:none" />
  </g>
</svg>
